<?xml version="1.0" encoding="utf-8"?>
<!-- Generator: Adobe Illustrator 19.0.0, SVG Export Plug-In . SVG Version: 6.00 Build 0)  -->
<svg version="1.1" id="Layer_1" xmlns:sketch="http://www.bohemiancoding.com/sketch/ns"
	 xmlns="http://www.w3.org/2000/svg" xmlns:xlink="http://www.w3.org/1999/xlink" x="0px" y="0px" viewBox="-249 358 72 54"
	 style="enable-background:new -249 358 72 54;" xml:space="preserve">
<style type="text/css">
	.st0{fill:#00B0FF;}
	.st1{fill:#222222;}
</style>
<title>Slice 1</title>
<description>Created with Sketch (http://www.bohemiancoding.com/sketch)</description>
<g id="Page-1" sketch:type="MSPage">
	<g id="sc-logo" sketch:type="MSLayerGroup">
		<g id="Group" transform="translate(0.000000, 1.000000)" sketch:type="MSShapeGroup">
			<path id="Shape" class="st0" d="M-238.2,357.6h46.9c2.3,0,4.3,1.9,4.3,4.3c0,2.3-1.9,4.3-4.3,4.3h-46.9c-2.3,0-4.3-1.9-4.3-4.3
				S-240.6,357.6-238.2,357.6L-238.2,357.6z"/>
			<path id="Shape_1_" class="st0" d="M-244.6,372.5h46.9c2.3,0,4.3,1.9,4.3,4.3c0,2.4-1.9,4.3-4.3,4.3h-46.9
				c-2.3,0-4.3-1.9-4.3-4.3C-248.9,374.4-247,372.5-244.6,372.5L-244.6,372.5z"/>
			<path id="Shape_2_" class="st0" d="M-234,387.5h47c2.3,0,4.3,1.9,4.3,4.3c0,2.3-1.9,4.3-4.3,4.3h-47c-2.3,0-4.3-1.9-4.3-4.3
				C-238.2,389.4-236.3,387.5-234,387.5L-234,387.5z"/>
			<path id="Shape_3_" class="st0" d="M-240.4,402.4h46.9c2.3,0,4.3,1.9,4.3,4.3c0,2.4-1.9,4.3-4.3,4.3h-46.9
				c-2.3,0-4.3-1.9-4.3-4.3C-244.7,404.3-242.7,402.4-240.4,402.4L-240.4,402.4z"/>
		</g>
		<path id="Shape_4_" sketch:type="MSShapeGroup" class="st1" d="M-159.8,401.7c-0.4-0.3-0.9-1-0.9-1.8c0-1.2,1-2.1,2.2-2.1
			c0.4,0,0.9,0.1,1.2,0.4c3.4,2.3,6.9,3.5,10.5,3.5c4,0,6.8-2,6.8-5.2v-0.1c0-3.3-3.9-4.6-8.3-5.8c-5.2-1.5-10.9-3.3-10.9-9.3v-0.1
			c0-5.7,4.7-9.5,11.3-9.5c3.5,0,7.4,1.1,10.6,2.8c0.6,0.4,1.2,1.1,1.2,2c0,1.2-1,2.1-2.2,2.1c-0.4,0-0.8-0.1-1.1-0.3
			c-2.8-1.6-5.8-2.6-8.6-2.6c-3.9,0-6.4,2-6.4,4.8v0.1c0,3.1,4.1,4.3,8.5,5.7c5.1,1.5,10.6,3.5,10.6,9.5v0.1c0,6.3-5.2,9.9-11.8,9.9
			C-151.4,405.9-156.2,404.3-159.8,401.7L-159.8,401.7z"/>
		<path id="Shape_5_" sketch:type="MSShapeGroup" class="st1" d="M-129.9,396.5v-20h-2.7c-1.2,0-2.2-1-2.2-2.2c0-1.2,1-2.2,2.2-2.2
			h2.7v-7.8c0-1.3,1-2.5,2.4-2.5c1.3,0,2.5,1.2,2.5,2.5v7.8h8.6c1.2,0,2.2,1,2.2,2.2c0,1.2-1,2.2-2.2,2.2h-8.6v19.3
			c0,4,2.2,5.5,5.6,5.5c1.7,0,2.6-0.4,3-0.4c1.2,0,2.1,1,2.1,2.1c0,0.9-0.6,1.6-1.4,1.9c-1.4,0.6-2.9,0.9-4.9,0.9
			C-125.8,405.8-129.9,403.2-129.9,396.5L-129.9,396.5z"/>
		<path id="Shape_6_" sketch:type="MSShapeGroup" class="st1" d="M-113,395.7v-0.1c0-7,5.8-10.7,14.1-10.7c4.2,0,7.2,0.6,10.2,1.4
			v-1.2c0-5.9-3.6-9-9.9-9c-3.3,0-6.1,0.8-8.6,1.9c-0.3,0.1-0.6,0.2-0.9,0.2c-1.2,0-2.2-1-2.2-2.1c0-1,0.7-1.8,1.3-2
			c3.3-1.4,6.6-2.2,10.8-2.2c4.7,0,8.3,1.2,10.7,3.6c2.2,2.2,3.4,5.4,3.4,9.7v18.1c0,1.4-1,2.4-2.4,2.4s-2.4-1-2.4-2.3v-3
			c-2.3,3-6.1,5.7-12,5.7C-106.8,406-113,402.4-113,395.7L-113,395.7z M-88.7,393.1v-3.2c-2.4-0.7-5.7-1.4-9.7-1.4
			c-6.2,0-9.7,2.7-9.7,6.8v0.1c0,4.2,3.8,6.6,8.3,6.6C-93.6,402.1-88.7,398.3-88.7,393.1L-88.7,393.1z"/>
		<path id="Shape_7_" sketch:type="MSShapeGroup" class="st1" d="M-80.3,388.9v-0.1c0-9.3,7.3-17.3,17-17.3c5.5,0,9.2,2.1,12.2,4.8
			c0.4,0.3,0.8,1,0.8,1.7c0,1.3-1.1,2.4-2.4,2.4c-0.6,0-1.2-0.3-1.6-0.6c-2.4-2.2-5.1-4-9-4c-6.7,0-11.8,5.7-11.8,12.8v0.1
			c0,7.2,5.2,12.9,12.2,12.9c3.8,0,6.8-1.7,9.2-4c0.3-0.3,0.8-0.6,1.4-0.6c1.2,0,2.2,1.1,2.2,2.2c0,0.6-0.3,1.2-0.6,1.5
			c-3.1,3.1-6.9,5.3-12.5,5.3C-73,406-80.3,398.2-80.3,388.9L-80.3,388.9z"/>
		<path id="Shape_8_" sketch:type="MSShapeGroup" class="st1" d="M-46.6,360.7c0-1.3,1.1-2.5,2.4-2.5c1.4,0,2.5,1.2,2.5,2.5V391
			l17.9-18.2c0.6-0.6,1.2-1,1.9-1c1.3,0,2.2,1.1,2.2,2.3c0,0.8-0.3,1.3-1,1.9l-10.8,10.6l11.8,14.9c0.4,0.6,0.6,1,0.6,1.7
			c0,1.3-1,2.3-2.4,2.3c-0.9,0-1.5-0.3-2.1-1.2L-34.8,390l-6.8,6.8v6.3c0,1.4-1,2.5-2.4,2.5s-2.5-1.1-2.5-2.5v-42.4H-46.6z"/>
		<path id="Shape_9_" sketch:type="MSShapeGroup" class="st0" d="M-18.4,388.9v-0.1c0-9.3,7.3-17.3,17-17.3c5.5,0,9.2,2.1,12.2,4.8
			c0.4,0.3,0.8,1,0.8,1.7c0,1.3-1.1,2.4-2.4,2.4c-0.6,0-1.2-0.3-1.6-0.6c-2.4-2.2-5.1-4-9-4c-6.7,0-11.8,5.7-11.8,12.8v0.1
			c0,7.2,5.2,12.9,12.2,12.9c3.8,0,6.8-1.7,9.2-4c0.3-0.3,0.8-0.6,1.4-0.6c1.2,0,2.2,1.1,2.2,2.2c0,0.6-0.3,1.2-0.6,1.5
			c-3.1,3.1-6.9,5.3-12.5,5.3C-11.1,406-18.4,398.2-18.4,388.9L-18.4,388.9z"/>
		<path id="Shape_10_" sketch:type="MSShapeGroup" class="st0" d="M12.4,388.9v-0.1c0-9.3,7.3-17.3,17.3-17.3
			c9.9,0,17.2,7.8,17.2,17.1v0.1c0,9.3-7.4,17.3-17.3,17.3C19.6,406,12.4,398.2,12.4,388.9L12.4,388.9z M41.8,388.9v-0.1
			c0-7.1-5.3-12.9-12.3-12.9c-7.2,0-12.1,5.8-12.1,12.8v0.1c0,7.1,5.2,12.9,12.2,12.9C36.8,401.6,41.8,395.8,41.8,388.9L41.8,388.9z
			"/>
		<path id="Shape_11_" sketch:type="MSShapeGroup" class="st0" d="M50.9,374.4c0-1.3,1.1-2.5,2.4-2.5c1.4,0,2.5,1.1,2.5,2.5v3.4
			c2.2-3.3,5.1-6.3,10.7-6.3c5.4,0,8.8,2.9,10.6,6.6c2.4-3.6,5.9-6.6,11.6-6.6c7.6,0,12.3,5.1,12.3,13.3v18.3c0,1.4-1.1,2.5-2.4,2.5
			c-1.4,0-2.5-1.1-2.5-2.5V386c0-6.4-3.2-10-8.6-10c-5,0-9.1,3.7-9.1,10.2v16.9c0,1.4-1.1,2.5-2.5,2.5c-1.3,0-2.4-1.1-2.4-2.5v-17.3
			c0-6.2-3.3-9.9-8.5-9.9s-9.2,4.3-9.2,10.4V403c0,1.4-1,2.5-2.4,2.5s-2.5-1.1-2.5-2.5V374.4L50.9,374.4z"/>
		<path id="Shape_12_" sketch:type="MSShapeGroup" class="st0" d="M107,374.4c0-1.3,1.1-2.5,2.4-2.5c1.4,0,2.5,1.1,2.5,2.5v3.4
			c2.2-3.3,5.1-6.3,10.7-6.3c5.4,0,8.8,2.9,10.6,6.6c2.4-3.6,5.9-6.6,11.6-6.6c7.6,0,12.3,5.1,12.3,13.3v18.3c0,1.4-1.1,2.5-2.4,2.5
			c-1.4,0-2.5-1.1-2.5-2.5V386c0-6.4-3.2-10-8.6-10c-5,0-9.1,3.7-9.1,10.2v16.9c0,1.4-1.1,2.5-2.5,2.5c-1.3,0-2.4-1.1-2.4-2.5v-17.3
			c0-6.2-3.3-9.9-8.5-9.9c-5.2,0-9.2,4.3-9.2,10.4V403c0,1.4-1,2.5-2.4,2.5s-2.5-1.1-2.5-2.5V374.4L107,374.4z"/>
		<path id="Shape_13_" sketch:type="MSShapeGroup" class="st0" d="M177.5,406c-9.1,0-16.5-7-16.5-17.2v-0.1
			c0-9.5,6.7-17.2,15.9-17.2c9.8,0,15.4,8,15.4,16.8c0,1.3-1.1,2.3-2.3,2.3h-24c0.7,7.2,5.8,11.2,11.6,11.2c4.1,0,7.1-1.6,9.5-3.8
			c0.4-0.3,0.8-0.6,1.4-0.6c1.2,0,2.2,1,2.2,2.1c0,0.6-0.3,1.2-0.8,1.6C186.8,404,183.1,406,177.5,406L177.5,406z M187.3,386.9
			c-0.5-6-4-11.3-10.6-11.3c-5.8,0-10.1,4.8-10.7,11.3H187.3L187.3,386.9z"/>
		<path id="Shape_14_" sketch:type="MSShapeGroup" class="st0" d="M196.1,374.4c0-1.3,1.1-2.5,2.4-2.5c1.4,0,2.5,1.1,2.5,2.5v6.2
			c2.4-5.5,7.2-8.8,11.4-8.8c1.5,0,2.4,1.1,2.4,2.5c0,1.3-0.9,2.3-2.2,2.5c-6.4,0.8-11.6,5.6-11.6,15.1v11.3c0,1.3-1,2.5-2.4,2.5
			s-2.5-1.1-2.5-2.5V374.4L196.1,374.4z"/>
		<path id="Shape_15_" sketch:type="MSShapeGroup" class="st0" d="M213.8,388.9v-0.1c0-9.3,7.3-17.3,17-17.3c5.5,0,9.2,2.1,12.2,4.8
			c0.4,0.3,0.8,1,0.8,1.7c0,1.3-1.1,2.4-2.4,2.4c-0.6,0-1.2-0.3-1.6-0.6c-2.4-2.2-5.1-4-9-4c-6.7,0-11.8,5.7-11.8,12.8v0.1
			c0,7.2,5.2,12.9,12.2,12.9c3.8,0,6.8-1.7,9.2-4c0.3-0.3,0.8-0.6,1.4-0.6c1.2,0,2.2,1.1,2.2,2.2c0,0.6-0.3,1.2-0.6,1.5
			c-3.1,3.1-6.9,5.3-12.5,5.3C221.1,406,213.8,398.2,213.8,388.9L213.8,388.9z"/>
		<path id="Shape_16_" sketch:type="MSShapeGroup" class="st0" d="M261,406c-9.1,0-16.5-7-16.5-17.2v-0.1c0-9.5,6.7-17.2,15.9-17.2
			c9.8,0,15.4,8,15.4,16.8c0,1.3-1.1,2.3-2.3,2.3h-23.9c0.7,7.2,5.8,11.2,11.6,11.2c4.1,0,7.1-1.6,9.5-3.8c0.4-0.3,0.8-0.6,1.4-0.6
			c1.2,0,2.2,1,2.2,2.1c0,0.6-0.3,1.2-0.8,1.6C270.4,404,266.7,406,261,406L261,406z M270.8,386.9c-0.5-6-4-11.3-10.6-11.3
			c-5.8,0-10.1,4.8-10.7,11.3H270.8L270.8,386.9z"/>
	</g>
</g>
</svg>
